<?xml version="1.0" encoding="UTF-8" standalone="no"?>
<svg width="40px" height="66px" viewBox="0 0 40 66" version="1.1" xmlns="http://www.w3.org/2000/svg" xmlns:xlink="http://www.w3.org/1999/xlink">
    <defs></defs>
    <g id="Page-3" stroke="none" stroke-width="1" fill="none" fill-rule="evenodd">
        <g id="Artboard" transform="translate(0.000000, -1.000000)" stroke="#9E9E9E" stroke-width="1.5">
            <path d="M22.1789507,65.7126349 C22.1789507,65.7126349 16.2586483,65.728 15.8053532,65.728 C14.762644,61.5339584 14.0433631,57.3557724 12.6558951,53.3714781 C10.7619541,47.9348078 7.42994746,43.3217244 1.85824897,40.2792548 C1.25256487,39.9485516 0.898381044,38.6434065 1.02586738,37.8728227 C2.47335814,29.1431637 4.03593384,20.4307195 5.5697383,11.7137451 C6.04148734,9.03097188 6.56085774,6.35544695 6.97109587,3.66451939 C7.14917989,2.49935682 7.61745655,1.99061749 9.0133575,2.00013087 C16.7786146,2.05404002 23.1282264,2.00013087 31.1628418,2.00013087 C32.4790039,2.00013087 32.7785666,3.13832767 32.8781224,3.6937056 C33.6335188,7.90773226 34.3886419,12.092132 35.1267257,16.2797146 C36.3872035,23.4319645 37.5936111,30.5928217 38.9160958,37.7355582 C39.1859502,39.1938235 38.8382151,39.9281658 37.3842756,40.7676084 C30.5625165,44.7079599 27.5271512,50.9224622 25.8053416,57.7879516 C25.1644376,60.3416147 24.8717646,62.9682137 24.395055,65.7080672 C24.1296517,65.7080672 22.1789507,65.7126349 22.1789507,65.7126349 Z" id="Path-2"></path>
        </g>
    </g>
</svg>